<svg id="Background" xmlns="http://www.w3.org/2000/svg" xmlns:xlink="http://www.w3.org/1999/xlink" viewBox="0 0 1440.37 720" preserveAspectRatio="xMaxYMax slice"><defs><style>.cls-1{fill:none;}.cls-2{clip-path:url(#clip-path);}.cls-3{fill:url(#linear-gradient);}.cls-4{fill:url(#linear-gradient-2);}.cls-5{fill:url(#linear-gradient-3);}.cls-6{fill:url(#linear-gradient-4);}.cls-7{fill:url(#linear-gradient-5);}</style><clipPath id="clip-path" transform="translate(-0.51 0)"><rect class="cls-1" x="0.51" width="1440" height="720" transform="translate(1441.03 720) rotate(180)"/></clipPath><linearGradient id="linear-gradient" x1="828.77" y1="55.59" x2="294.31" y2="981.3" gradientTransform="matrix(1, 0, 0, -1, 158.97, 1036.9)" gradientUnits="userSpaceOnUse"><stop offset="0.13" stop-color="#515a60"/><stop offset="0.33" stop-color="#383d41"/><stop offset="0.5" stop-color="#1f2122"/><stop offset="1" stop-color="#454c55"/></linearGradient><linearGradient id="linear-gradient-2" x1="1053.7" y1="497.45" x2="1053.7" y2="135" gradientTransform="translate(-333)" gradientUnits="userSpaceOnUse"><stop offset="0.25" stop-color="#2a2d2e"/><stop offset="0.45" stop-color="#2e3234"/><stop offset="0.7" stop-color="#3b4043"/><stop offset="0.98" stop-color="#4f585d"/><stop offset="1" stop-color="#515a60"/></linearGradient><linearGradient id="linear-gradient-3" x1="788.6" y1="-284.6" x2="302.37" y2="557.56" gradientTransform="matrix(-1, 0, 0, 1, 1282.06, 0)" gradientUnits="userSpaceOnUse"><stop offset="0" stop-color="#515a60"/><stop offset="0.16" stop-color="#3e4549"/><stop offset="0.34" stop-color="#2f3335"/><stop offset="0.53" stop-color="#25292a"/><stop offset="0.72" stop-color="#222526"/><stop offset="0.87" stop-color="#3a4144"/><stop offset="1" stop-color="#515a60"/></linearGradient><linearGradient id="linear-gradient-4" x1="755.32" y1="-289.83" x2="383.61" y2="418.03" gradientTransform="matrix(-0.94, 0.08, 0.09, 1, 1177.05, -68.24)" gradientUnits="userSpaceOnUse"><stop offset="0" stop-color="#222526"/><stop offset="0.24" stop-color="#272a2c"/><stop offset="0.55" stop-color="#343a3d"/><stop offset="0.91" stop-color="#4b5358"/><stop offset="1" stop-color="#515a60"/></linearGradient><linearGradient id="linear-gradient-5" x1="561.54" y1="467.8" x2="561.54" y2="720" gradientTransform="matrix(-1, 0, 0, 1, 1282.06, 0)" gradientUnits="userSpaceOnUse"><stop offset="0" stop-color="#475259"/><stop offset="0.77" stop-color="#1f2122"/></linearGradient></defs><title>hero_bg_xlarge</title><g class="cls-2"><rect class="cls-3" x="0.51" y="317" width="1440" height="402.9" transform="translate(1440.51 1036.9) rotate(180)"/><path class="cls-4" d="M.51,379.48c191.37,174,420.82,16.78,494.74-14.48,170.26-72,329.24-46,528.59,55.53,209.46,106.67,341,83.75,416.67,42.21l.38-321.07L.51,135Z" transform="translate(-0.51 0)"/><path class="cls-5" d="M1440.51,290.86s-219.65,154.62-545.93,31.61S318.8,79.87,56.49,196.05a553.39,553.39,0,0,1-56,21.29V0h1440Z" transform="translate(-0.51 0)"/><path class="cls-6" d="M852.86,181.33C529.46,74.17,312.17-28.88,70.37,114.44A429.72,429.72,0,0,1,.52,147.88V0H1330C1248.27,134.29,1101.73,263.79,852.86,181.33Z" transform="translate(-0.51 0)"/><path class="cls-7" d="M.51,467.8S108.24,725.54,548.92,576.55C1008.51,453,1440.51,678,1440.51,678v41.79L.51,720Z" transform="translate(-0.51 0)"/></g></svg>